<?xml version="1.0" encoding="UTF-8" standalone="no"?>
<svg width="200px" height="60px" viewBox="0 0 200 60" version="1.1" xmlns="http://www.w3.org/2000/svg" xmlns:xlink="http://www.w3.org/1999/xlink" xmlns:sketch="http://www.bohemiancoding.com/sketch/ns">
    <!-- Generator: Sketch 3.1.1 (8761) - http://www.bohemiancoding.com/sketch -->
    <title>logo</title>
    <desc>Created with Sketch.</desc>
    <defs></defs>
    <g id="Page-1" stroke="none" stroke-width="1" fill="none" fill-rule="evenodd" sketch:type="MSPage">
        <g id="logo" sketch:type="MSArtboardGroup" fill="#4A4A4A">
            <path d="M8.44140625,30.6679688 C8.5507818,31.4570352 8.7656234,32.046873 9.0859375,32.4375 C9.67187793,33.1484411 10.6757741,33.5039062 12.0976562,33.5039062 C12.949223,33.5039062 13.6406223,33.4101572 14.171875,33.2226562 C15.1796925,32.8632795 15.6835938,32.1953174 15.6835938,31.21875 C15.6835938,30.6484346 15.4335963,30.2070328 14.9335938,29.8945312 C14.4335912,29.5898422 13.6484429,29.3203137 12.578125,29.0859375 L10.75,28.6757812 C8.95311602,28.2695292 7.71094094,27.8281274 7.0234375,27.3515625 C5.85936918,26.5546835 5.27734375,25.3086022 5.27734375,23.6132812 C5.27734375,22.0663985 5.83983812,20.7812551 6.96484375,19.7578125 C8.08984938,18.7343699 9.7421766,18.2226562 11.921875,18.2226562 C13.7421966,18.2226562 15.2949154,18.7050733 16.5800781,19.6699219 C17.8652408,20.6347704 18.5390622,22.0351471 18.6015625,23.8710938 L15.1328125,23.8710938 C15.0703122,22.8320261 14.6171917,22.0937522 13.7734375,21.65625 C13.2109347,21.3671861 12.5117229,21.2226562 11.6757812,21.2226562 C10.7460891,21.2226562 10.003909,21.4101544 9.44921875,21.7851562 C8.89452848,22.1601581 8.6171875,22.6835904 8.6171875,23.3554688 C8.6171875,23.9726593 8.89062227,24.4335922 9.4375,24.7382812 C9.78906426,24.9414073 10.5390568,25.1796861 11.6875,25.453125 L14.6640625,26.1679688 C15.9687565,26.4804703 16.9531217,26.8984349 17.6171875,27.421875 C18.6484427,28.2343791 19.1640625,29.4101486 19.1640625,30.9492188 C19.1640625,32.5273516 18.5605529,33.8378854 17.3535156,34.8808594 C16.1464783,35.9238333 14.4414173,36.4453125 12.2382812,36.4453125 C9.98827,36.4453125 8.21875645,35.9316458 6.9296875,34.9042969 C5.64061855,33.876948 4.99609375,32.4648527 4.99609375,30.6679688 L8.44140625,30.6679688 Z M21.8359375,18.7265625 L25.5039062,18.7265625 L25.5039062,29.34375 C25.5039062,30.5312559 25.6445298,31.3984348 25.9257812,31.9453125 C26.3632834,32.9140673 27.3163989,33.3984375 28.7851562,33.3984375 C30.2461011,33.3984375 31.1953103,32.9140673 31.6328125,31.9453125 C31.9140639,31.3984348 32.0546875,30.5312559 32.0546875,29.34375 L32.0546875,18.7265625 L35.7226562,18.7265625 L35.7226562,29.34375 C35.7226562,31.1796967 35.4375029,32.6093699 34.8671875,33.6328125 C33.8046822,35.5078219 31.7773587,36.4453125 28.7851562,36.4453125 C25.7929538,36.4453125 23.7617241,35.5078219 22.6914062,33.6328125 C22.1210909,32.6093699 21.8359375,31.1796967 21.8359375,29.34375 L21.8359375,18.7265625 Z M48.1855469,22.3007812 C47.7128883,21.9179668 47.0507855,21.7265625 46.1992188,21.7265625 L42.8359375,21.7265625 L42.8359375,26.8125 L46.1992188,26.8125 C47.0507855,26.8125 47.7128883,26.6054708 48.1855469,26.1914062 C48.6582055,25.7773417 48.8945312,25.1210982 48.8945312,24.2226562 C48.8945312,23.3242143 48.6582055,22.6835957 48.1855469,22.3007812 L48.1855469,22.3007812 Z M50.921875,28.5234375 C49.8906198,29.3671917 48.4179783,29.7890625 46.5039062,29.7890625 L42.8359375,29.7890625 L42.8359375,36 L39.25,36 L39.25,18.7265625 L46.7734375,18.7265625 C48.5078212,18.7265625 49.8906198,19.1718705 50.921875,20.0625 C51.9531302,20.9531295 52.46875,22.3320219 52.46875,24.1992188 C52.46875,26.2382914 51.9531302,27.6796833 50.921875,28.5234375 L50.921875,28.5234375 Z M67.9492188,21.7851562 L58.8085938,21.7851562 L58.8085938,25.453125 L67.1992188,25.453125 L67.1992188,28.453125 L58.8085938,28.453125 L58.8085938,32.8945312 L68.3710938,32.8945312 L68.3710938,36 L55.28125,36 L55.28125,18.7265625 L67.9492188,18.7265625 L67.9492188,21.7851562 Z M74.7929688,21.7265625 L74.7929688,26.3671875 L78.8828125,26.3671875 C79.6953166,26.3671875 80.3046855,26.2734384 80.7109375,26.0859375 C81.4296911,25.7578109 81.7890625,25.1093798 81.7890625,24.140625 C81.7890625,23.0937448 81.4414097,22.3906268 80.7460938,22.03125 C80.3554668,21.828124 79.7695352,21.7265625 78.9882812,21.7265625 L74.7929688,21.7265625 Z M82.5332031,19.171875 C83.1855501,19.4453139 83.738279,19.8476536 84.1914062,20.3789062 C84.5664081,20.8164084 84.8632802,21.3007786 85.0820312,21.8320312 C85.3007823,22.3632839 85.4101562,22.9687466 85.4101562,23.6484375 C85.4101562,24.4687541 85.2031271,25.2753867 84.7890625,26.0683594 C84.3749979,26.8613321 83.691411,27.4218734 82.7382812,27.75 C83.5351602,28.0703141 84.0996077,28.5253877 84.4316406,29.1152344 C84.7636735,29.7050811 84.9296875,30.6054627 84.9296875,31.8164062 L84.9296875,32.9765625 C84.9296875,33.7656289 84.9609372,34.3007798 85.0234375,34.5820312 C85.117188,35.027346 85.3359358,35.3554677 85.6796875,35.5664062 L85.6796875,36 L81.7070312,36 C81.5976557,35.6171856 81.5195315,35.3085949 81.4726562,35.0742188 C81.3789058,34.5898413 81.328125,34.0937525 81.3203125,33.5859375 L81.296875,31.9804688 C81.2812499,30.8789007 81.0800801,30.1445331 80.6933594,29.7773438 C80.3066387,29.4101544 79.5820366,29.2265625 78.5195312,29.2265625 L74.7929688,29.2265625 L74.7929688,36 L71.265625,36 L71.265625,18.7265625 L79.7382812,18.7265625 C80.9492248,18.7500001 81.8808561,18.8984361 82.5332031,19.171875 L82.5332031,19.171875 Z M90.0390625,30.4453125 C90.0937503,31.4218799 90.3242167,32.2148407 90.7304688,32.8242188 C91.5039101,33.9648495 92.8671777,34.5351562 94.8203125,34.5351562 C95.6953169,34.5351562 96.4921839,34.4101575 97.2109375,34.1601562 C98.6015695,33.6757788 99.296875,32.8086 99.296875,31.5585938 C99.296875,30.6210891 99.0039092,29.953127 98.4179688,29.5546875 C97.8242158,29.1640605 96.8945376,28.8242202 95.6289062,28.5351562 L93.296875,28.0078125 C91.7734299,27.6640608 90.6953157,27.2851583 90.0625,26.8710938 C88.9687445,26.1523402 88.421875,25.0781321 88.421875,23.6484375 C88.421875,22.1015548 88.9570259,20.8320362 90.0273438,19.8398438 C91.0976616,18.8476513 92.6132714,18.3515625 94.5742188,18.3515625 C96.3789153,18.3515625 97.9121031,18.787105 99.1738281,19.6582031 C100.435553,20.5293012 101.066406,21.9218654 101.066406,23.8359375 L98.875,23.8359375 C98.7578119,22.9140579 98.5078144,22.2070337 98.125,21.7148438 C97.4140589,20.8164018 96.2070398,20.3671875 94.5039062,20.3671875 C93.1288994,20.3671875 92.140628,20.6562471 91.5390625,21.234375 C90.937497,21.8125029 90.6367188,22.4843712 90.6367188,23.25 C90.6367188,24.0937542 90.9882777,24.7109355 91.6914062,25.1015625 C92.1523461,25.3515637 93.1953044,25.6640606 94.8203125,26.0390625 L97.234375,26.5898438 C98.3984433,26.8554701 99.2968718,27.2187477 99.9296875,27.6796875 C101.023443,28.484379 101.570312,29.6523361 101.570312,31.1835938 C101.570312,33.0898533 100.87696,34.4531209 99.4902344,35.2734375 C98.1035087,36.0937541 96.4921967,36.5039062 94.65625,36.5039062 C92.5156143,36.5039062 90.8398498,35.9570367 89.6289062,34.8632812 C88.4179627,33.7773383 87.8242186,32.3046968 87.8476562,30.4453125 L90.0390625,30.4453125 Z M117.050781,18.7851562 L117.050781,20.8359375 L111.25,20.8359375 L111.25,36 L108.882812,36 L108.882812,20.8359375 L103.082031,20.8359375 L103.082031,18.7851562 L117.050781,18.7851562 Z M126.25,28.9453125 L123.636719,21.3398438 L120.859375,28.9453125 L126.25,28.9453125 Z M122.417969,18.7851562 L125.054688,18.7851562 L131.300781,36 L128.746094,36 L127,30.84375 L120.191406,30.84375 L118.328125,36 L115.9375,36 L122.417969,18.7851562 Z M141.425781,26.671875 C142.519537,26.671875 143.384762,26.4531272 144.021484,26.015625 C144.658206,25.5781228 144.976562,24.7890682 144.976562,23.6484375 C144.976562,22.4218689 144.531254,21.5859397 143.640625,21.140625 C143.16406,20.9062488 142.527348,20.7890625 141.730469,20.7890625 L136.035156,20.7890625 L136.035156,26.671875 L141.425781,26.671875 Z M133.703125,18.7851562 L141.671875,18.7851562 C142.984382,18.7851562 144.066402,18.9765606 144.917969,19.359375 C146.535164,20.0937537 147.34375,21.4492089 147.34375,23.4257812 C147.34375,24.4570364 147.130862,25.300778 146.705078,25.9570312 C146.279295,26.6132845 145.683598,27.140623 144.917969,27.5390625 C145.589847,27.8125014 146.095701,28.1718728 146.435547,28.6171875 C146.775392,29.0625022 146.964844,29.7851512 147.003906,30.7851562 L147.085938,33.09375 C147.109375,33.7500033 147.164062,34.2382796 147.25,34.5585938 C147.390626,35.1054715 147.640623,35.4570305 148,35.6132812 L148,36 L145.140625,36 C145.0625,35.8515618 145,35.6601574 144.953125,35.4257812 C144.90625,35.1914051 144.867188,34.7382846 144.835938,34.0664062 L144.695312,31.1953125 C144.640625,30.0703069 144.22266,29.3164082 143.441406,28.9335938 C142.996092,28.7226552 142.29688,28.6171875 141.34375,28.6171875 L136.035156,28.6171875 L136.035156,36 L133.703125,36 L133.703125,18.7851562 Z M162.859375,18.7851562 L162.859375,20.8359375 L157.058594,20.8359375 L157.058594,36 L154.691406,36 L154.691406,20.8359375 L148.890625,20.8359375 L148.890625,18.7851562 L162.859375,18.7851562 Z" id="SUPERSTART" sketch:type="MSShapeGroup"></path>
        </g>
    </g>
</svg>