<svg width="200" height="60" viewBox="0 0 200 60" xmlns="http://www.w3.org/2000/svg"><title>logo</title><desc>Created with Sketch.</desc><path d="M8.44 30.668c.11.79.326 1.38.646 1.77.586.71 1.59 1.066 3.012 1.066.85 0 1.543-.094 2.074-.28 1.008-.36 1.512-1.03 1.512-2.005 0-.572-.25-1.013-.75-1.325-.5-.305-1.286-.575-2.356-.81l-1.828-.41c-1.797-.405-3.04-.847-3.727-1.323-1.164-.797-1.746-2.043-1.746-3.74 0-1.546.563-2.83 1.688-3.854s2.777-1.535 4.957-1.535c1.82 0 3.373.482 4.658 1.447 1.285.965 1.96 2.365 2.022 4.2h-3.47c-.062-1.038-.515-1.776-1.36-2.214-.56-.29-1.26-.433-2.096-.433-.93 0-1.672.187-2.227.562-.555.375-.833.9-.833 1.57 0 .618.274 1.08.82 1.383.352.203 1.102.442 2.25.715l2.977.715c1.305.312 2.29.73 2.953 1.254 1.03.812 1.547 1.988 1.547 3.527 0 1.577-.603 2.888-1.81 3.93-1.208 1.044-2.913 1.565-5.116 1.565-2.25 0-4.02-.513-5.308-1.54-1.29-1.028-1.934-2.44-1.934-4.237H8.44zm13.396-11.94h3.668v10.616c0 1.187.14 2.054.422 2.6.437.97 1.39 1.454 2.86 1.454 1.46 0 2.41-.484 2.847-1.453.28-.547.422-1.414.422-2.6V18.726h3.668v10.617c0 1.836-.285 3.265-.856 4.29-1.062 1.874-3.09 2.81-6.082 2.81s-5.023-.936-6.094-2.81c-.57-1.025-.854-2.454-.854-4.29V18.727zm26.35 3.573c-.473-.382-1.135-.573-1.987-.573h-3.364v5.085H46.2c.85 0 1.513-.207 1.986-.62.472-.415.71-1.07.71-1.97 0-.898-.238-1.538-.71-1.92zm2.736 6.223c-1.03.844-2.504 1.266-4.418 1.266h-3.668V36H39.25V18.727h7.523c1.735 0 3.118.445 4.15 1.335 1.03.89 1.546 2.27 1.546 4.137 0 2.038-.517 3.48-1.548 4.323zm17.027-6.738h-9.14v3.668h8.39v3h-8.39v4.442h9.56V36H55.28V18.727h12.67v3.058zm6.843-.058v4.64h4.09c.812 0 1.422-.094 1.828-.28.72-.33 1.08-.978 1.08-1.946 0-1.046-.35-1.75-1.044-2.11-.39-.202-.976-.303-1.758-.303h-4.195zm7.74-2.555c.653.273 1.205.676 1.658 1.207.376.436.673.92.892 1.452.22.53.328 1.137.328 1.816 0 .82-.207 1.627-.62 2.42-.415.793-1.1 1.354-2.052 1.682.797.32 1.362.775 1.694 1.365.332.59.498 1.49.498 2.7v1.162c0 .79.03 1.324.093 1.605.094.445.313.773.657.984V36h-3.973c-.11-.383-.187-.69-.234-.926-.094-.484-.145-.98-.153-1.488l-.023-1.606c-.016-1.1-.217-1.835-.604-2.203-.386-.367-1.11-.55-2.173-.55h-3.727V36h-3.527V18.727h8.472c1.21.023 2.143.17 2.795.445zm7.506 11.273c.054.977.284 1.77.69 2.38.774 1.14 2.137 1.71 4.09 1.71.875 0 1.672-.125 2.39-.375 1.392-.484 2.087-1.35 2.087-2.6 0-.94-.293-1.607-.88-2.005-.593-.39-1.522-.73-2.788-1.02l-2.333-.527c-1.524-.344-2.602-.723-3.234-1.137-1.094-.718-1.64-1.792-1.64-3.222 0-1.546.534-2.816 1.604-3.808s2.586-1.488 4.547-1.488c1.805 0 3.338.435 4.6 1.306 1.262.87 1.892 2.264 1.892 4.178h-2.19c-.118-.922-.368-1.63-.75-2.12-.712-.9-1.92-1.35-3.622-1.35-1.375 0-2.363.29-2.965.868-.603.58-.903 1.25-.903 2.016 0 .844.35 1.46 1.054 1.852.462.25 1.505.562 3.13.937l2.414.55c1.164.265 2.063.63 2.696 1.09 1.093.804 1.64 1.972 1.64 3.504 0 1.906-.693 3.27-2.08 4.09-1.386.82-2.998 1.23-4.834 1.23-2.14 0-3.816-.547-5.027-1.64-1.212-1.087-1.806-2.56-1.782-4.42h2.19zm27.01-11.66v2.05h-5.8V36h-2.367V20.836h-5.8v-2.05h13.968zm9.2 10.16l-2.613-7.605-2.778 7.605h5.39zm-3.832-10.16h2.637L131.3 36h-2.554L127 30.844h-6.81L118.33 36h-2.39l6.48-17.215zm19.008 7.887c1.094 0 1.96-.22 2.595-.656.638-.438.957-1.227.957-2.368 0-1.226-.446-2.062-1.336-2.507-.476-.234-1.113-.35-1.91-.35h-5.695v5.882h5.39zm-7.723-7.887h7.97c1.31 0 2.393.192 3.245.574 1.617.734 2.426 2.09 2.426 4.066 0 1.03-.213 1.875-.64 2.53-.425.657-1.02 1.185-1.786 1.583.672.273 1.178.632 1.518 1.077.34.446.53 1.168.568 2.168l.082 2.31c.023.655.078 1.143.164 1.464.14.545.39.897.75 1.053V36h-2.86c-.077-.148-.14-.34-.187-.574-.047-.235-.086-.688-.117-1.36l-.14-2.87c-.055-1.126-.473-1.88-1.255-2.262-.444-.21-1.143-.317-2.096-.317h-5.31V36h-2.33V18.785zm29.156 0v2.05h-5.8V36h-2.37V20.836h-5.8v-2.05h13.97z" fill="#4A4A4A"/></svg>